<?xml version="1.0" encoding="UTF-8"?>
<!DOCTYPE svg PUBLIC "-//W3C//DTD SVG 1.1//EN" "http://www.w3.org/Graphics/SVG/1.1/DTD/svg11.dtd">
<!-- Creator: CorelDRAW X8 -->
<svg xmlns="http://www.w3.org/2000/svg" xml:space="preserve" width="248.556mm" height="91.5831mm" version="1.1" style="shape-rendering:geometricPrecision; text-rendering:geometricPrecision; image-rendering:optimizeQuality; fill-rule:evenodd; clip-rule:evenodd"
viewBox="0 0 24526 9037"
 xmlns:xlink="http://www.w3.org/1999/xlink">
 <defs>
  <style type="text/css">
   <![CDATA[
    .fil3 {fill:#00ACCF}
    .fil2 {fill:#001A2B}
    .fil1 {fill:#001A2B;fill-rule:nonzero}
    .fil0 {fill:#009BDB;fill-rule:nonzero}
   ]]>
  </style>
 </defs>
 <g id="Camada_x0020_1">
  <metadata id="CorelCorpID_0Corel-Layer"/>
  <g id="_952410992">
   <path class="fil0" d="M14620 8214c0,-11 5,-16 14,-17l205 0c30,0 59,4 86,12 27,8 53,19 76,33 24,13 45,30 65,50 19,19 35,41 49,64 13,24 24,50 31,77 8,28 12,57 12,86 0,30 -4,58 -12,86 -7,27 -18,53 -32,76 -14,24 -31,46 -50,65 -20,20 -42,36 -65,50 -24,14 -49,25 -77,32 -27,8 -56,12 -86,12l-200 0c-2,0 -4,-1 -4,-1 0,-1 -1,-1 -2,-1 -1,-1 -3,-1 -4,-2 -2,-1 -3,-2 -4,-4 -1,-1 -2,-3 -2,-6l0 -612zm216 571c25,0 49,-3 72,-10 23,-6 45,-15 64,-27 20,-11 38,-25 55,-42 16,-16 29,-34 41,-54 11,-20 20,-41 26,-64 7,-23 10,-47 10,-71 0,-38 -7,-73 -21,-106 -14,-32 -34,-60 -58,-84 -24,-24 -52,-42 -85,-55 -32,-14 -66,-20 -103,-20l-163 0 0 533 162 0zm466 -201c1,5 2,12 2,20 1,8 2,16 4,23 7,26 18,49 31,71 14,21 31,39 50,55 19,15 40,27 64,36 23,8 48,12 74,12 15,0 29,-1 42,-3 14,-2 26,-6 37,-10 11,-4 22,-9 32,-15 10,-5 20,-12 29,-19 3,-1 6,-4 9,-6 3,-2 6,-5 8,-7 3,-2 6,-4 8,-6 3,-1 5,-2 7,-2 2,0 5,2 8,6 4,7 8,12 10,16 2,4 3,6 3,8 0,2 0,3 -1,4 1,1 2,3 2,4 -3,4 -7,8 -12,13 -4,4 -10,8 -16,13 -23,16 -48,30 -75,39 -27,10 -56,15 -87,15 -39,0 -75,-8 -109,-23 -34,-14 -64,-35 -89,-61 -26,-25 -46,-55 -61,-90 -15,-34 -23,-71 -23,-110 0,-26 4,-51 10,-75 7,-25 16,-47 28,-68 12,-21 27,-40 43,-58 17,-17 36,-32 57,-44 21,-13 44,-22 68,-29 24,-7 49,-10 76,-10 24,0 48,3 72,9 23,6 45,15 65,26 21,12 39,26 56,42 17,17 32,36 44,57 12,21 22,44 29,69 7,26 11,53 12,82l0 -1c0,0 0,1 0,1 1,1 1,1 1,2 0,10 -5,14 -14,14l-494 0zm168 -243c-22,5 -42,14 -61,27 -19,12 -35,27 -50,44 -14,17 -26,36 -36,56 -10,21 -17,43 -21,65l458 0c-4,-28 -12,-55 -26,-80 -13,-24 -30,-45 -51,-63 -20,-18 -44,-32 -70,-43 -26,-10 -53,-15 -82,-15 -9,0 -19,0 -28,1 -9,1 -20,4 -33,8zm422 384c0,-1 -1,-2 -1,-4 0,-1 -1,-2 -1,-3 0,-4 1,-7 3,-9 2,-1 5,-3 8,-4l17 -8c0,0 1,0 3,0 2,-1 3,-1 3,-1 2,0 4,2 6,4 2,3 3,6 5,10 1,3 3,7 4,11 1,4 3,8 4,11 6,12 14,22 24,31 10,9 21,16 33,22 12,5 24,10 37,12 12,3 23,4 34,4 13,0 27,-2 43,-5 16,-4 31,-10 45,-19 15,-8 26,-19 36,-33 10,-13 15,-30 15,-49 0,-18 -5,-33 -13,-46 -9,-13 -20,-24 -33,-33 -14,-8 -29,-16 -45,-22 -17,-5 -34,-10 -50,-14 -22,-5 -42,-12 -62,-21 -19,-8 -37,-19 -52,-31 -15,-12 -27,-26 -36,-42 -9,-16 -14,-34 -14,-54 0,-23 4,-44 13,-62 8,-18 19,-34 34,-47 15,-13 33,-24 53,-31 21,-7 44,-10 70,-10 21,0 40,2 57,8 17,5 33,13 47,23 14,9 26,21 37,35 10,14 18,30 25,47l0 -1c2,3 2,5 2,7 0,2 -1,5 -3,7 -2,3 -5,5 -8,7 -3,2 -6,4 -9,5 -3,1 -6,1 -7,1 -4,0 -6,0 -8,-1 -1,-1 -3,-3 -4,-5 -2,-2 -3,-5 -4,-8 -1,-3 -3,-6 -5,-9 -12,-20 -28,-36 -48,-48 -20,-13 -44,-19 -73,-19 -15,0 -30,2 -44,6 -14,4 -27,10 -38,18 -11,9 -19,19 -26,32 -6,12 -9,27 -9,44 0,14 4,27 12,38 9,11 20,21 32,29 13,8 27,15 41,20 15,6 28,10 40,13 2,0 4,1 4,1 1,0 1,0 2,0 26,6 49,14 71,24 21,9 39,21 54,34 16,13 27,28 35,46 9,17 13,36 13,58 0,25 -5,47 -16,66 -10,20 -24,36 -41,49 -18,14 -38,24 -61,31 -23,7 -47,11 -72,11 -21,0 -41,-3 -61,-8 -19,-6 -37,-14 -53,-25 -15,-10 -29,-23 -41,-39 -11,-16 -19,-33 -24,-54zm471 -591c0,-6 1,-10 3,-14 1,-3 5,-5 9,-6l9 0 23 0c5,1 8,3 10,6 1,4 2,8 2,14l0 16c0,8 -1,14 -4,16 -3,2 -8,3 -16,3l-15 0c-7,0 -13,-1 -16,-3 -3,-2 -5,-5 -5,-10l0 -22zm3 173c0,-9 5,-14 14,-14l22 0c9,0 14,5 14,14l0 519c0,9 -5,14 -14,14l-22 0c-9,0 -14,-5 -14,-14l0 -519zm695 105c0,-4 0,-8 0,-13 0,-5 0,-9 1,-14l0 -79c0,-4 1,-8 4,-11 3,-3 7,-5 12,-5l18 0c6,0 10,2 13,5 3,4 4,8 4,12l0 450c0,1 0,1 0,2 -1,0 -1,1 -1,1 -1,34 -5,64 -12,91 -8,27 -18,50 -30,71 -13,20 -27,38 -44,52 -17,15 -35,27 -55,36 -19,9 -40,16 -61,20 -22,5 -44,7 -66,7 -31,0 -59,-4 -84,-11 -25,-6 -48,-16 -69,-29 -3,-1 -5,-3 -7,-5 -1,-2 -2,-4 -2,-7 0,-3 0,-5 0,-6 0,-2 1,-3 2,-5 1,-2 3,-5 6,-8 2,-4 6,-9 10,-15 2,-3 4,-4 6,-3 3,0 5,1 7,2 3,2 10,6 18,10 9,4 20,9 31,13 12,4 25,7 39,10 14,3 28,4 42,4 31,0 60,-5 87,-14 26,-10 50,-24 69,-43 20,-19 35,-42 47,-69 11,-28 17,-60 17,-96l0 -47c-12,20 -26,39 -42,55 -17,17 -35,31 -55,42 -20,11 -41,20 -63,26 -23,6 -45,9 -69,9 -25,0 -50,-4 -74,-10 -23,-7 -46,-17 -66,-29 -21,-12 -40,-27 -57,-45 -18,-17 -32,-36 -45,-57 -12,-21 -21,-44 -28,-68 -7,-24 -10,-49 -10,-75 0,-26 3,-51 10,-75 7,-25 17,-47 29,-68 12,-21 27,-40 44,-58 17,-17 36,-32 57,-44 21,-13 43,-22 67,-29 23,-7 48,-10 74,-10 23,0 46,3 68,9 23,6 44,15 63,26 20,12 38,26 54,42 16,16 30,34 41,53zm-456 154c0,21 3,41 8,61 6,20 13,38 23,56 10,17 22,33 36,47 13,15 29,28 46,38 16,11 34,19 54,25 19,6 39,8 60,8 29,0 57,-5 83,-16 26,-10 50,-25 70,-43 21,-19 38,-41 51,-66 14,-25 22,-52 26,-81l0 -56c-4,-29 -12,-56 -25,-81 -14,-25 -30,-47 -50,-66 -21,-19 -44,-34 -69,-45 -26,-11 -54,-16 -83,-16 -21,0 -42,3 -61,8 -20,6 -38,14 -55,24 -17,11 -32,23 -46,37 -14,15 -26,30 -36,48 -10,17 -18,36 -24,56 -5,20 -8,41 -8,62zm646 -257c0,-5 1,-9 4,-12 3,-3 7,-4 12,-4l17 0c5,0 9,2 12,5 3,3 4,6 4,11l0 64c12,-19 26,-35 42,-46 15,-12 31,-22 47,-29 16,-6 32,-11 48,-13 16,-3 30,-4 44,-4 33,0 63,6 90,18 27,12 50,29 69,50 19,21 34,45 44,73 11,28 16,58 16,90l0 309c0,6 -2,11 -5,14 -3,3 -7,5 -12,5l-16 0c-6,0 -11,-2 -13,-5 -2,-3 -3,-7 -3,-14l0 -310c-1,-23 -6,-45 -14,-66 -8,-21 -19,-41 -34,-57 -14,-17 -32,-30 -53,-41 -21,-10 -45,-15 -72,-15 -22,0 -43,4 -64,12 -21,8 -40,20 -57,35 -16,15 -30,33 -40,53 -10,21 -16,44 -17,69l0 325c0,9 -4,14 -13,14l-22 0c-9,0 -14,-5 -14,-14l0 -120c0,-1 0,-2 0,-5l0 -392zm1045 294c13,-7 25,-12 38,-16 13,-4 26,-6 40,-6 5,0 11,0 17,1 7,1 13,2 20,5l141 38c4,2 9,2 14,3 4,0 9,1 13,1 10,0 20,-2 29,-6 9,-3 18,-8 26,-14 7,-6 14,-13 20,-21 6,-9 10,-18 13,-28 3,-9 8,-13 15,-13 3,0 6,1 8,2l11 4c4,2 7,4 9,6 2,3 3,5 3,9 0,4 0,7 -1,10 -5,15 -12,29 -20,41 -9,12 -19,23 -30,32 -11,9 -24,16 -38,21 -14,5 -28,8 -44,8 -2,0 -5,-1 -9,-1 -4,-1 -9,-1 -13,-2 -5,0 -9,-1 -13,-1 -4,-1 -6,-1 -7,-2l-44 -12c-3,26 -10,51 -22,73 -12,23 -28,43 -47,60 -19,17 -40,31 -65,41 -24,10 -49,15 -76,15 -29,0 -56,-5 -81,-15 -25,-10 -47,-23 -65,-41 -19,-17 -34,-38 -45,-62 -10,-25 -16,-51 -16,-80 0,-20 3,-39 8,-57 6,-18 13,-35 23,-50 10,-15 21,-29 35,-41 14,-12 30,-22 46,-30 -20,-13 -36,-30 -48,-51 -12,-21 -18,-46 -18,-73 0,-22 4,-43 12,-62 9,-19 21,-35 35,-48 15,-14 32,-24 52,-32 19,-7 40,-11 62,-11 22,0 43,4 62,11 19,8 36,18 51,32 14,13 26,29 34,48 9,19 13,40 13,62 0,6 -1,10 -4,14 -3,3 -8,5 -14,5l-12 0c-7,0 -12,-2 -15,-5 -3,-4 -5,-8 -5,-14 0,-16 -2,-31 -8,-44 -5,-13 -13,-24 -23,-33 -10,-9 -22,-16 -35,-21 -14,-5 -29,-7 -45,-7 -16,0 -30,2 -44,7 -14,5 -26,12 -36,21 -10,9 -18,20 -24,33 -5,13 -8,28 -8,44 0,16 2,30 8,43 5,12 13,22 23,31 9,9 21,15 34,20 13,4 27,7 43,8l4 0c6,0 10,2 14,4 3,3 5,8 5,14l0 10c0,7 -2,12 -5,15 -3,3 -8,5 -14,5 -22,0 -42,3 -61,11 -19,7 -36,18 -50,31 -15,14 -26,30 -34,48 -9,19 -13,39 -13,61 0,22 4,43 13,61 8,18 19,34 34,47 14,13 31,23 50,31 19,7 40,10 62,10 21,0 41,-4 60,-12 19,-8 36,-19 51,-33 15,-14 26,-30 36,-49 9,-18 14,-38 15,-59l-54 -15c-6,-1 -12,-1 -17,-1 -9,0 -17,1 -26,3 -9,2 -18,5 -27,10 -3,1 -5,3 -7,4 -2,1 -4,1 -8,1 -7,0 -12,-3 -15,-10l-5 -11c-2,-4 -3,-7 -3,-10 0,-7 4,-12 12,-16zm1207 -406c5,0 9,1 12,4 3,2 4,6 5,11l0 18c0,5 -1,9 -4,12 -3,3 -7,4 -13,4l-198 0 0 578c0,10 -6,16 -16,16l-18 0c-11,0 -16,-6 -16,-16l0 -578 -200 0c-10,0 -15,-5 -15,-16l0 -18c0,-4 1,-8 4,-11 3,-3 6,-4 11,-4l448 0zm134 387c1,5 2,12 2,20 0,8 2,16 4,23 7,26 17,49 31,71 14,21 30,39 49,55 19,15 41,27 64,36 24,8 49,12 75,12 15,0 29,-1 42,-3 13,-2 25,-6 37,-10 11,-4 22,-9 32,-15 10,-5 19,-12 29,-19 2,-1 5,-4 8,-6 3,-2 6,-5 9,-7 3,-2 6,-4 8,-6 2,-1 5,-2 7,-2 2,0 4,2 7,6 5,7 9,12 11,16 2,4 3,6 3,8 0,2 -1,3 -2,4 2,1 2,3 2,4 -3,4 -7,8 -11,13 -5,4 -10,8 -16,13 -23,16 -48,30 -75,39 -27,10 -56,15 -88,15 -38,0 -74,-8 -108,-23 -34,-14 -64,-35 -90,-61 -25,-25 -45,-55 -60,-90 -15,-34 -23,-71 -23,-110 0,-26 3,-51 10,-75 6,-25 16,-47 28,-68 12,-21 26,-40 43,-58 17,-17 36,-32 57,-44 21,-13 43,-22 67,-29 25,-7 50,-10 76,-10 25,0 49,3 72,9 24,6 45,15 66,26 20,12 39,26 56,42 17,17 32,36 44,57 12,21 22,44 29,69 7,26 11,53 12,82l0 -1c0,0 0,1 0,1 0,1 0,1 0,2 0,10 -4,14 -13,14l-494 0zm168 -243c-22,5 -42,14 -61,27 -19,12 -36,27 -50,44 -15,17 -27,36 -37,56 -9,21 -16,43 -20,65l457 0c-3,-28 -12,-55 -25,-80 -14,-24 -31,-45 -51,-63 -21,-18 -44,-32 -70,-43 -26,-10 -53,-15 -82,-15 -10,0 -19,0 -28,1 -9,1 -20,4 -33,8zm867 52c0,1 -1,1 -2,2 -1,1 -2,1 -3,1 -2,0 -5,-1 -8,-4 -4,-4 -9,-9 -17,-15 -7,-7 -17,-14 -30,-21 -12,-6 -27,-12 -45,-17 -18,-5 -39,-8 -63,-8 -30,0 -59,6 -87,19 -27,12 -52,29 -73,50 -21,21 -38,46 -50,75 -13,28 -19,58 -19,90 0,32 6,63 18,91 12,28 29,54 50,75 20,22 45,39 72,51 28,13 57,19 87,19 15,0 29,-1 42,-3 13,-2 25,-6 37,-10 11,-4 22,-9 32,-15 10,-5 19,-12 29,-19 2,-1 5,-3 8,-6 3,-2 6,-4 9,-6 3,-3 5,-4 8,-6 2,-2 5,-2 6,-2 3,0 6,1 9,5 5,6 8,12 10,16 3,3 4,6 4,8 0,2 -1,3 -2,4 1,2 2,3 2,4 -7,9 -16,17 -28,26 -23,16 -48,30 -74,39 -27,10 -56,15 -88,15 -26,0 -50,-4 -74,-10 -24,-7 -46,-17 -67,-29 -21,-13 -40,-27 -57,-45 -17,-17 -32,-36 -44,-57 -12,-21 -22,-44 -28,-68 -7,-24 -11,-49 -11,-75 0,-26 4,-51 11,-75 6,-25 16,-47 28,-68 12,-21 27,-40 44,-58 17,-17 36,-32 57,-44 21,-13 43,-22 67,-29 24,-7 48,-10 74,-10 17,0 34,1 50,5 16,3 32,8 47,13 15,6 30,13 43,21 13,8 26,17 37,26l0 0 1 1c2,2 5,4 7,6 2,2 3,5 3,8 0,3 -2,7 -6,11l-16 19zm532 119c-1,-22 -5,-45 -13,-66 -7,-21 -18,-41 -32,-57 -14,-17 -31,-30 -51,-41 -20,-10 -43,-15 -68,-15 -22,0 -44,4 -65,12 -22,8 -41,19 -58,34 -17,14 -31,32 -42,52 -10,21 -16,44 -17,69l0 327c0,10 -4,14 -13,14l-23 0c-9,0 -14,-4 -14,-14l0 -693c0,-9 5,-14 14,-14l23 0c8,0 13,5 13,14l0 245 2 0c9,-15 20,-28 33,-40 13,-12 27,-22 43,-31 16,-8 33,-15 51,-19 18,-5 37,-7 56,-7 31,0 60,6 86,18 26,12 48,29 66,50 19,21 33,45 43,73 11,28 16,58 16,91l0 308c0,7 -2,11 -5,15 -3,3 -7,4 -13,4l-15 0c-7,0 -11,-1 -14,-4 -2,-3 -3,-8 -3,-14l0 -311z"/>
   <path class="fil0" d="M21389 8309c0,-5 2,-9 5,-12 3,-3 7,-4 12,-4l17 0c5,0 9,2 12,5 3,3 4,6 4,11l0 64c12,-19 26,-35 41,-46 16,-12 32,-22 48,-29 16,-6 32,-11 48,-13 16,-3 30,-4 44,-4 33,0 62,6 90,18 27,12 50,29 69,50 19,21 34,45 44,73 11,28 16,58 16,90l0 309c0,6 -2,11 -5,14 -3,3 -7,5 -12,5l-16 0c-6,0 -11,-2 -13,-5 -2,-3 -4,-7 -4,-14l0 -310c0,-23 -5,-45 -13,-66 -8,-21 -19,-41 -34,-57 -14,-17 -32,-30 -53,-41 -21,-10 -45,-15 -72,-15 -22,0 -44,4 -64,12 -21,8 -40,20 -57,35 -16,15 -30,33 -40,53 -10,21 -16,44 -17,69l0 325c0,9 -4,14 -13,14l-22 0c-9,0 -14,-5 -14,-14l0 -120c0,-1 -1,-2 -1,-5l0 -392zm547 258c0,-26 3,-51 10,-75 6,-25 16,-47 28,-68 12,-21 27,-41 44,-58 17,-17 36,-32 57,-44 21,-13 43,-22 67,-29 24,-7 48,-10 74,-10 26,0 50,3 74,10 24,7 46,16 67,29 21,12 40,27 57,44 18,17 32,37 45,58 12,21 21,43 28,68 7,24 10,49 10,75 0,26 -3,51 -10,75 -7,24 -16,47 -28,68 -13,21 -27,40 -45,57 -17,18 -36,32 -57,45 -21,12 -43,22 -67,29 -24,6 -48,10 -74,10 -26,0 -50,-4 -74,-10 -24,-7 -46,-17 -67,-29 -21,-13 -40,-27 -57,-45 -17,-17 -32,-36 -44,-57 -12,-21 -22,-44 -28,-68 -7,-24 -10,-49 -10,-75zm51 0c0,21 3,41 8,61 5,19 13,38 23,55 10,18 22,34 35,48 14,15 30,27 47,38 16,10 35,18 54,24 19,6 39,8 60,8 32,0 62,-6 90,-18 28,-12 52,-29 73,-50 21,-21 38,-46 50,-74 13,-28 19,-59 19,-91 0,-32 -6,-62 -18,-91 -12,-28 -28,-53 -49,-75 -21,-22 -45,-39 -73,-52 -27,-13 -57,-19 -89,-19 -31,0 -61,6 -89,19 -28,12 -53,29 -74,51 -20,22 -37,47 -49,75 -12,29 -18,59 -18,91zm614 -427c0,-8 5,-13 14,-13l22 0c9,0 14,5 14,13l0 686c0,9 -5,14 -14,14l-22 0c-9,0 -14,-5 -14,-14l0 -686zm161 427c0,-26 4,-51 11,-75 6,-25 16,-47 28,-68 12,-21 27,-41 44,-58 17,-17 36,-32 57,-44 21,-13 43,-22 67,-29 24,-7 48,-10 74,-10 26,0 50,3 74,10 24,7 46,16 67,29 21,12 40,27 57,44 17,17 32,37 44,58 13,21 22,43 29,68 7,24 10,49 10,75 0,26 -3,51 -10,75 -7,24 -16,47 -29,68 -12,21 -27,40 -44,57 -17,18 -36,32 -57,45 -21,12 -43,22 -67,29 -24,6 -48,10 -74,10 -26,0 -50,-4 -74,-10 -24,-7 -46,-17 -67,-29 -21,-13 -40,-27 -57,-45 -17,-17 -32,-36 -44,-57 -12,-21 -22,-44 -28,-68 -7,-24 -11,-49 -11,-75zm52 0c0,21 2,41 8,61 5,19 13,38 23,55 10,18 21,34 35,48 14,15 29,27 46,38 17,10 35,18 55,24 19,6 39,8 60,8 32,0 62,-6 90,-18 28,-12 52,-29 73,-50 21,-21 38,-46 50,-74 13,-28 19,-59 19,-91 0,-32 -6,-62 -18,-91 -12,-28 -29,-53 -49,-75 -21,-22 -45,-39 -73,-52 -28,-13 -57,-19 -89,-19 -32,0 -61,6 -89,19 -28,12 -53,29 -74,51 -21,22 -37,47 -49,75 -12,29 -18,59 -18,91zm1111 -155c0,-4 0,-8 0,-13 0,-5 0,-9 1,-14l0 -79c0,-4 1,-8 4,-11 3,-3 7,-5 12,-5l18 0c5,0 10,2 12,5 3,4 5,8 5,12l0 450c0,1 0,1 -1,2 0,0 0,1 0,1 -1,34 -5,64 -12,91 -8,27 -18,50 -30,71 -13,20 -27,38 -44,52 -17,15 -35,27 -55,36 -19,9 -40,16 -61,20 -22,5 -44,7 -66,7 -31,0 -59,-4 -84,-11 -25,-6 -48,-16 -69,-29 -3,-1 -5,-3 -7,-5 -1,-2 -2,-4 -2,-7 0,-3 0,-5 0,-6 0,-2 1,-3 2,-5 1,-2 3,-5 6,-8 2,-4 6,-9 10,-15 1,-3 3,-4 6,-3 3,0 5,1 7,2 3,2 9,6 18,10 9,4 19,9 31,13 12,4 25,7 39,10 14,3 28,4 42,4 31,0 60,-5 87,-14 26,-10 50,-24 69,-43 20,-19 35,-42 47,-69 11,-28 16,-60 16,-96l0 -47c-11,20 -25,39 -41,55 -17,17 -35,31 -55,42 -20,11 -41,20 -64,26 -22,6 -45,9 -68,9 -25,0 -50,-4 -74,-10 -23,-7 -46,-17 -66,-29 -21,-12 -40,-27 -57,-45 -18,-17 -32,-36 -45,-57 -12,-21 -21,-44 -28,-68 -7,-24 -10,-49 -10,-75 0,-26 3,-51 10,-75 7,-25 17,-47 29,-68 12,-21 27,-40 44,-58 17,-17 36,-32 57,-44 21,-13 43,-22 67,-29 23,-7 48,-10 74,-10 23,0 46,3 68,9 23,6 44,15 63,26 20,12 38,26 54,42 16,16 30,34 41,53zm-456 154c0,21 3,41 8,61 6,20 13,38 23,56 10,17 22,33 36,47 13,15 29,28 45,38 17,11 35,19 55,25 19,6 39,8 60,8 29,0 57,-5 83,-16 26,-10 50,-25 70,-43 21,-19 38,-41 51,-66 14,-25 22,-52 26,-81l0 -56c-4,-29 -12,-56 -25,-81 -14,-25 -30,-47 -50,-66 -21,-19 -44,-34 -70,-45 -26,-11 -53,-16 -82,-16 -21,0 -42,3 -61,8 -20,6 -38,14 -55,24 -17,11 -32,23 -46,37 -14,15 -26,30 -36,48 -11,17 -18,36 -24,56 -5,20 -8,41 -8,62zm780 429c-3,6 -7,9 -12,10 -6,2 -11,2 -17,2 -9,0 -16,-1 -20,-2 -4,-2 -6,-6 -6,-12 0,-1 0,-3 1,-4 0,-2 0,-3 1,-3l65 -168 -206 -505c-2,-1 -2,-4 -2,-9 0,-6 2,-9 7,-11 5,-1 12,-2 21,-2 6,0 11,1 16,2 5,1 9,4 11,9l10 25c8,20 17,42 26,65 10,24 20,48 30,74 10,25 20,51 31,77 10,26 21,52 31,77 10,25 19,48 28,71 10,23 18,43 26,62 8,-20 16,-42 26,-66 10,-24 20,-49 30,-75 11,-26 22,-53 33,-80 11,-28 21,-55 32,-82 11,-26 21,-52 31,-77 10,-25 19,-48 28,-69 3,-8 8,-13 16,-13l24 0c10,0 16,5 16,14 0,2 -1,3 -1,5 -1,2 -1,3 -1,3l-275 682z"/>
  </g>
  <path class="fil0" d="M6102 6775c25,19 44,43 55,70l50 0 0 -252 -10 17 -95 165zm-5218 -2110c0,-47 -43,-88 -101,-99 3,65 8,130 15,195 51,-16 86,-53 86,-96zm226 -666c-76,0 -137,46 -137,103 0,35 24,67 60,85l0 0c0,16 -11,33 -16,41 0,1 -1,2 -1,3 0,4 4,8 8,8 0,0 2,0 2,0 27,-5 52,-29 58,-36 8,1 17,2 26,2 76,0 138,-46 138,-103 0,-57 -62,-103 -138,-103zm-83 1356c0,1 -1,2 -1,3 0,4 4,8 8,8 1,0 2,0 2,0 27,-5 52,-29 58,-37 8,2 18,2 26,2 76,0 138,-46 138,-103 0,-56 -62,-103 -138,-103 -75,0 -137,47 -137,103 0,36 24,67 60,86l0 0c0,16 -11,32 -16,41zm283 -1771c0,1 0,2 0,3 0,4 3,8 7,8 1,0 3,0 3,0 26,-5 51,-29 58,-37 8,2 17,2 26,2 76,0 137,-46 137,-103 0,-56 -61,-103 -137,-103 -76,0 -137,47 -137,103 0,36 23,67 60,86l0 0c0,16 -12,32 -17,41zm80 1207c0,1 -1,3 -1,4 0,4 4,7 8,7 1,0 2,0 2,0 27,-4 52,-29 58,-36 9,1 18,2 27,2 75,0 137,-46 137,-103 0,-57 -62,-103 -137,-103 -76,0 -138,46 -138,103 0,35 24,67 61,86l-1 0c0,16 -11,32 -16,40zm13 1127c0,1 -1,3 -1,3 0,4 4,8 8,8 1,0 3,0 3,0 26,-4 51,-29 57,-36 9,1 18,2 27,2 76,0 137,-46 137,-103 0,-57 -61,-103 -137,-103 -76,0 -138,46 -138,103 0,35 24,67 61,85l-1 0c0,16 -11,33 -16,41zm-1373 -4682c0,0 0,1 0,1 0,2 2,4 3,4 1,0 2,0 2,0 12,-2 24,-14 27,-18 4,1 9,1 13,1 37,0 66,-22 66,-49 0,-27 -29,-50 -66,-50 -36,0 -66,23 -66,50 0,17 12,32 29,41l0 0c0,8 -6,16 -8,20zm876 52c0,1 0,2 0,2 0,4 3,6 6,6 1,0 2,0 2,0 21,-3 40,-22 45,-28 7,1 14,2 21,2 59,0 107,-36 107,-81 0,-44 -48,-80 -107,-80 -60,0 -108,36 -108,80 0,28 19,53 47,67l0 0c0,13 -9,25 -13,32zm-194 1052c0,1 0,2 0,3 0,4 3,7 8,7 0,0 2,0 2,0 27,-4 52,-29 58,-36 8,1 17,2 26,2 76,0 137,-46 137,-103 0,-56 -61,-103 -137,-103 -76,0 -137,47 -137,103 0,35 24,67 60,86l0 0c0,16 -12,32 -17,41zm-135 667c0,1 0,2 0,3 0,4 3,7 7,7 1,0 3,0 3,0 26,-4 51,-29 57,-36 9,1 18,2 27,2 76,0 137,-46 137,-103 0,-56 -61,-103 -137,-103 -76,0 -137,47 -137,103 0,35 23,67 60,86l0 0c0,16 -12,32 -17,41zm1106 72c0,1 0,3 0,3 0,4 3,8 7,8 1,0 3,0 3,0 26,-4 52,-29 58,-36 8,1 17,2 26,2 76,0 137,-46 137,-103 0,-57 -61,-103 -137,-103 -76,0 -137,46 -137,103 0,35 24,67 60,85l0 1c0,15 -12,32 -17,40zm70 1149c0,1 -1,2 -1,3 0,4 4,8 8,8 1,0 2,0 2,0 27,-5 52,-29 58,-36 9,1 18,2 27,2 75,0 137,-46 137,-103 0,-57 -62,-103 -137,-103 -76,0 -138,46 -138,103 0,35 24,67 61,85l-1 0c0,16 -11,33 -16,41zm13 1127c0,1 0,2 0,3 0,4 3,8 7,8 1,0 3,0 3,0 26,-5 51,-29 57,-37 9,2 18,2 27,2 76,0 137,-46 137,-103 0,-56 -61,-103 -137,-103 -76,0 -137,47 -137,103 0,36 23,67 60,86l-1 0c0,16 -11,32 -16,41zm18 1127c0,1 0,2 0,3 0,4 3,7 7,7 1,0 3,0 3,0 26,-4 52,-28 58,-36 8,1 17,2 26,2 67,0 122,-35 135,-83 1,-6 2,-13 2,-20 0,-56 -61,-103 -137,-103 -50,0 -95,21 -118,51 -12,15 -19,33 -19,52 0,36 24,67 60,86l0 0c0,16 -12,32 -17,41zm629 -4889c-76,0 -137,46 -137,102 0,36 24,68 60,86l0 0c0,16 -12,32 -17,41 0,1 0,2 0,3 0,4 4,8 8,8 0,0 2,0 2,0 26,-5 52,-29 58,-37 8,2 17,3 26,3 76,0 137,-47 137,-104 0,-56 -61,-102 -137,-102zm-291 699c-75,0 -137,47 -137,103 0,35 24,67 60,86l0 0c0,16 -11,32 -17,41 0,1 0,2 0,3 0,4 4,8 8,8 0,0 2,0 2,0 26,-5 52,-29 58,-37 8,2 18,2 26,2 76,0 138,-46 138,-103 0,-56 -62,-103 -138,-103zm-6 1373c0,1 0,2 0,3 0,4 3,7 7,7 1,0 3,0 3,0 26,-4 52,-29 57,-36 9,2 18,2 27,2 76,0 137,-46 137,-103 0,-56 -61,-103 -137,-103 -76,0 -137,47 -137,103 0,35 23,67 60,86l-1 0c0,16 -11,32 -16,41zm13 1126c0,1 0,3 0,4 0,4 3,7 7,7 1,0 3,0 3,0 26,-4 51,-29 58,-36 8,1 17,2 26,2 76,0 137,-46 137,-103 0,-57 -61,-103 -137,-103 -76,0 -137,46 -137,103 0,35 23,67 60,86l-1 0c0,16 -11,32 -16,40zm102 2231c1,-1 2,-2 2,-2 9,1 18,2 27,2 75,0 137,-47 137,-104 0,-56 -62,-102 -137,-102 -76,0 -138,46 -138,102 0,36 24,68 61,86l-1 0c0,5 -1,10 -3,15 -3,11 -10,20 -13,26 0,1 -1,2 -1,3 0,4 4,8 8,8 1,0 2,0 2,0 24,-4 47,-24 56,-34zm-83 -1104c0,1 -1,3 -1,3 0,4 4,8 8,8 0,0 2,0 2,0 27,-4 52,-29 58,-36 8,1 17,2 26,2 67,0 122,-36 135,-83 2,-7 3,-13 3,-20 0,-57 -62,-103 -138,-103 -50,0 -94,21 -118,51 -12,15 -19,33 -19,52 0,35 24,67 60,85l0 1c0,15 -12,32 -16,40zm363 -563c0,1 -1,2 -1,3 0,4 4,8 8,8 1,0 2,0 2,0 27,-5 52,-29 58,-36 8,1 18,1 27,1 24,0 46,-4 66,-13 -37,-60 -70,-123 -100,-189 -36,7 -67,24 -85,48 -12,15 -19,32 -19,51 0,36 24,67 60,86l0 0c0,16 -11,32 -16,41zm-960 -4854c0,0 0,1 0,1 0,2 1,4 4,4 0,0 1,0 1,0 14,-2 27,-15 30,-19 5,1 10,1 14,1 40,0 73,-24 73,-54 0,-30 -33,-54 -73,-54 -40,0 -72,24 -72,54 0,19 12,35 32,45l-1 0c0,9 -6,17 -8,22zm493 214c0,1 0,2 0,2 0,4 3,7 6,7 1,0 2,0 2,0 22,-4 43,-24 48,-31 7,2 15,2 22,2 64,0 115,-38 115,-86 0,-47 -51,-86 -115,-86 -63,0 -114,39 -114,86 0,29 19,56 50,72l0 0c0,13 -10,27 -14,34zm576 605c0,1 0,2 0,3 0,4 3,8 7,8 1,0 3,0 3,0 26,-5 51,-29 58,-36 8,1 17,2 26,2 76,0 137,-46 137,-104 0,-56 -61,-102 -137,-102 -76,0 -137,46 -137,102 0,36 23,68 60,86l-1 0c0,16 -11,33 -16,41zm-141 1781c0,1 0,3 0,3 0,4 3,8 7,8 1,0 3,0 3,0 26,-4 52,-29 58,-36 8,1 17,2 26,2 76,0 137,-46 137,-103 0,-57 -61,-103 -137,-103 -76,0 -137,46 -137,103 0,35 23,67 60,85l0 1c0,15 -12,32 -17,40zm64 3355c-4,10 -11,20 -14,26 0,1 -1,2 -1,3 0,4 4,7 8,7 1,0 3,0 3,0 23,-4 46,-24 55,-33 1,-1 2,-2 2,-3 9,1 18,2 27,2 76,0 137,-46 137,-103 0,-56 -61,-103 -137,-103 -76,0 -138,47 -138,103 0,36 24,67 61,86l-1 0c0,5 -1,10 -2,15zm299 -3918c0,1 0,2 0,3 0,4 3,8 7,8 1,0 3,0 3,0 26,-5 52,-29 58,-37 8,2 17,3 26,3 76,0 137,-47 137,-104 0,-56 -61,-102 -137,-102 -76,0 -137,46 -137,102 0,36 23,67 60,86l0 0c0,16 -12,32 -17,41zm60 4507c0,1 0,2 0,3 0,4 3,8 7,8 1,0 3,0 3,0 26,-5 52,-29 58,-36 8,1 17,2 26,2 49,0 93,-20 117,-49 13,-16 20,-35 20,-55 0,-56 -61,-102 -137,-102 -76,0 -137,46 -137,102 0,33 20,63 52,82 2,1 5,3 8,4l0 0c0,16 -12,32 -17,41zm4 -1152c-4,10 -10,19 -14,25 0,1 0,3 0,3 0,4 3,8 7,8 1,0 3,0 3,0 24,-4 46,-24 55,-33 1,-2 2,-2 2,-3 9,1 18,2 27,2 73,0 132,-43 137,-96 -50,-34 -97,-71 -141,-110 -74,2 -133,47 -133,103 0,35 23,67 60,85l0 1c0,5 -2,10 -3,15zm299 -3919c0,2 0,3 0,4 0,4 4,7 8,7 0,0 2,0 2,0 27,-4 52,-29 58,-36 8,1 17,2 26,2 76,0 137,-46 137,-103 0,-56 -61,-103 -137,-103 -76,0 -137,47 -137,103 0,35 24,67 60,86l0 0c0,16 -12,32 -17,40zm60 4508c0,1 0,2 0,3 0,4 4,7 7,7 1,0 3,0 3,0 26,-4 52,-28 58,-36 8,1 17,2 26,2 50,0 93,-19 117,-49 13,-15 20,-34 20,-54 0,-56 -61,-103 -137,-103 -76,0 -137,47 -137,103 0,33 20,62 52,81 2,2 5,3 8,5l0 0c0,16 -11,32 -17,41zm140 900c-10,-2 -21,-3 -33,-3 -49,0 -92,20 -116,49 -13,15 -21,34 -21,54 0,35 24,67 60,85l0 1c0,3 0,6 -1,9 16,4 31,7 47,11 2,-2 4,-4 5,-5 8,1 17,2 26,2 76,0 137,-46 137,-103 0,-48 -44,-89 -104,-100zm180 -6012l0 0c0,16 -11,33 -17,41 0,1 0,2 0,3 0,4 4,8 8,8 0,0 2,0 2,0 26,-5 52,-29 58,-36 8,1 17,2 26,2 76,0 138,-46 138,-103 0,-57 -62,-103 -138,-103 -75,0 -137,46 -137,103 0,35 24,67 60,85zm13 1127l0 0c0,16 -11,32 -16,41 0,1 -1,2 -1,3 0,4 4,8 8,8 1,0 2,0 2,0 27,-5 52,-29 58,-37 8,2 18,3 26,3 76,0 138,-47 138,-104 0,-56 -62,-102 -138,-102 -75,0 -137,46 -137,102 0,36 24,67 60,86zm43 4548c0,1 0,2 0,3 0,4 4,8 8,8 0,0 2,0 2,0 27,-5 52,-29 58,-36 8,1 18,2 26,2 76,0 138,-47 138,-104 0,-47 -45,-88 -105,-99 -10,-2 -21,-3 -33,-3 -49,0 -92,19 -116,48 -13,16 -21,35 -21,54 0,36 24,68 60,86l0 0c0,16 -11,32 -17,41zm304 -5071c0,2 -1,3 -1,4 0,4 4,7 8,7 1,0 2,0 2,0 27,-4 52,-29 58,-36 9,1 18,2 27,2 75,0 137,-46 137,-103 0,-56 -62,-103 -137,-103 -76,0 -138,47 -138,103 0,35 24,67 60,86l0 0c0,16 -11,32 -16,40zm60 4508c0,1 -1,2 -1,3 0,4 4,7 8,7 1,0 2,0 2,0 27,-4 52,-28 58,-36 8,1 18,2 27,2 75,0 137,-46 137,-103 0,-48 -45,-88 -104,-99 -11,-2 -22,-4 -33,-4 -50,0 -93,20 -117,49 -13,16 -21,34 -21,54 0,36 24,67 60,86l0 0c0,16 -11,32 -16,41zm112 897c-76,0 -137,46 -137,103 0,35 23,67 60,85l-1 1c0,15 -11,32 -16,40 0,1 0,3 0,4 0,4 3,7 7,7 1,0 3,0 3,0 26,-4 51,-29 57,-36 9,1 18,2 27,2 76,0 137,-46 137,-103 0,-57 -61,-103 -137,-103zm208 -6009l-1 0c0,16 -11,33 -16,41 0,1 -1,2 -1,3 0,4 4,8 8,8 1,0 3,0 3,0 26,-5 51,-29 57,-36 9,1 18,2 27,2 76,0 137,-46 137,-103 0,-57 -61,-103 -137,-103 -76,0 -138,46 -138,103 0,35 24,67 61,85zm95 939c-50,0 -95,20 -118,51 -12,15 -19,32 -19,51 0,36 23,67 60,86l0 0c0,16 -12,32 -17,41 0,1 0,2 0,3 0,4 3,8 7,8 1,0 3,0 3,0 26,-5 52,-29 58,-36 8,1 17,2 26,2 67,0 122,-36 135,-83 1,-7 2,-14 2,-21 0,-56 -61,-102 -137,-102zm-34 4736c0,1 0,2 0,3 0,4 3,8 7,8 1,0 3,0 3,0 26,-5 51,-29 58,-36 8,1 17,2 26,2 76,0 137,-47 137,-104 0,-56 -61,-102 -137,-102 -76,0 -137,46 -137,102 0,36 23,68 60,86l0 0c0,16 -12,32 -17,41zm445 -4170c31,16 62,34 92,53 -18,-27 -52,-47 -92,-53zm-142 -901c0,2 0,3 0,4 0,4 4,7 8,7 0,0 2,0 2,0 27,-4 52,-29 58,-36 8,1 17,2 26,2 67,0 122,-36 135,-83 1,-6 2,-13 2,-20 0,-56 -61,-103 -137,-103 -50,0 -94,21 -118,51 -12,15 -19,33 -19,52 0,35 24,67 60,86l0 0c0,16 -12,32 -17,40zm42 3381c0,1 -1,2 -1,3 0,4 4,8 8,8 1,0 3,0 3,0 26,-5 51,-29 57,-36 9,1 18,1 27,1 76,0 137,-46 137,-103 0,-48 -44,-88 -104,-99 -11,-2 -22,-3 -33,-3 -49,0 -92,19 -117,48 -13,16 -20,34 -20,54 0,36 23,67 60,86l-1 0c0,16 -11,32 -16,41zm18 1127c0,1 0,2 0,3 0,4 3,7 7,7 1,0 3,0 3,0 26,-4 52,-29 58,-36 8,1 17,2 26,2 76,0 137,-46 137,-103 0,-56 -61,-103 -137,-103 -76,0 -137,47 -137,103 0,35 24,67 60,86l0 0c0,16 -12,32 -17,41zm112 897c-75,0 -137,46 -137,103 0,35 24,67 60,85l0 1c0,15 -10,31 -16,39 17,-2 34,-5 50,-8 8,-7 14,-13 17,-16 8,1 18,2 26,2 76,0 138,-46 138,-103 0,-57 -62,-103 -138,-103zm208 -6009l0 1c0,15 -12,32 -17,40 0,1 0,2 0,3 0,4 3,8 7,8 1,0 3,0 3,0 26,-5 52,-29 58,-36 8,1 17,2 26,2 53,0 99,-23 122,-56 -79,-31 -158,-60 -239,-85 -3,-1 -6,-2 -9,-3 -7,13 -11,26 -11,41 0,35 24,67 60,85zm15 1142c-3,11 -10,20 -13,26 0,1 -1,2 -1,3 0,4 4,8 8,8 1,0 2,0 2,0 24,-4 47,-24 56,-34 1,-1 2,-2 2,-2 9,1 18,2 27,2 75,0 137,-47 137,-104 0,-56 -62,-102 -137,-102 -76,0 -138,46 -138,102 0,36 24,67 61,86l-1 0c0,5 -1,10 -3,15zm28 3406c0,1 0,3 0,3 0,4 4,8 8,8 0,0 2,0 2,0 26,-4 52,-29 58,-36 8,1 17,2 26,2 76,0 137,-46 137,-103 0,-57 -61,-103 -137,-103 -76,0 -137,46 -137,103 0,35 24,67 60,85l0 0c0,16 -12,33 -17,41zm-18 -1127c0,2 0,3 0,4 0,4 3,7 7,7 1,0 3,0 3,0 26,-4 51,-29 58,-36 8,1 17,2 26,2 68,0 124,-37 135,-86l-270 0c6,28 27,53 58,69l0 0c0,16 -12,32 -17,40zm37 2254c0,1 -1,2 -1,3 0,4 4,8 8,8 1,0 2,0 2,0 27,-5 52,-29 58,-36 9,1 18,2 27,2 75,0 137,-47 137,-104 0,-56 -62,-102 -137,-102 -76,0 -138,46 -138,102 0,36 24,68 60,86l0 0c0,16 -11,32 -16,41zm347 387c47,-16 93,-34 139,-52 -6,-1 -13,-1 -19,-1 -52,0 -97,22 -120,53zm-30 -5483c-4,10 -11,20 -14,25 0,2 -1,3 -1,4 0,4 4,7 8,7 1,0 3,0 3,0 23,-4 46,-24 55,-33 1,-1 2,-2 2,-3 9,1 18,2 27,2 76,0 137,-46 137,-103 0,-56 -61,-103 -137,-103 -76,0 -137,47 -137,103 0,35 23,67 60,86l-1 0c0,5 -1,10 -2,15zm121 3176c-76,0 -137,47 -137,103 0,36 24,67 60,86l0 0c0,16 -11,32 -17,41 0,1 0,2 0,3 0,4 4,8 8,8 0,0 2,0 2,0 26,-5 52,-29 58,-37 8,2 17,2 26,2 76,0 138,-46 138,-103 0,-56 -62,-103 -138,-103zm-75 1357c0,1 -1,2 -1,3 0,4 4,7 8,7 1,0 2,0 2,0 27,-4 52,-29 58,-36 9,1 18,2 27,2 75,0 137,-46 137,-103 0,-56 -62,-103 -137,-103 -76,0 -138,47 -138,103 0,35 24,67 61,86l-1 0c0,16 -11,32 -16,41zm457 -793c-76,0 -137,46 -137,103 0,35 23,67 60,85l-1 0c0,16 -11,33 -16,41 0,1 -1,3 -1,3 0,4 4,8 8,8 1,0 3,0 3,0 26,-4 51,-29 57,-36 9,1 18,2 27,2 76,0 137,-46 137,-103 0,-57 -61,-103 -137,-103zm-154 -1007c6,28 28,53 58,69l0 0c0,16 -11,32 -16,40 0,1 -1,3 -1,4 0,4 4,7 8,7 1,0 2,0 2,0 27,-4 52,-29 58,-36 8,1 18,2 27,2 61,0 113,-30 131,-73 -23,-9 -46,-13 -68,-13l-199 0zm164 2134c-76,0 -137,46 -137,102 0,36 23,68 60,86l0 0c0,16 -12,32 -17,41 0,1 0,2 0,3 0,4 3,8 7,8 1,0 3,0 3,0 26,-5 51,-29 57,-36 9,1 18,2 27,2 76,0 137,-47 137,-104 0,-56 -61,-102 -137,-102zm246 -1523l0 -129c-19,18 -30,40 -30,64 0,25 11,47 30,65zm0 1116l0 -107c-13,16 -20,34 -20,53 0,19 7,38 20,54zm-5448 -2124l9 -140c0,0 0,0 0,0 0,0 0,0 -1,-1 -8,-10 -17,-31 -18,-34l-2 -1c-22,-10 -46,-24 -65,-47l-100 50c33,83 70,166 111,248 13,27 27,54 41,80 5,-1 10,-3 16,-4l9 -151zm200 1033l-1 -2c-16,-19 -31,-41 -38,-70l-31 0c2,6 3,12 5,18 13,46 27,92 42,137l25 -43c0,0 0,0 0,0 0,0 0,-1 0,-1 -4,-14 -3,-36 -2,-39zm18 -233l-94 -165 -59 -101c-6,2 -12,4 -18,5 14,112 34,222 60,330l55 0c11,-26 31,-50 56,-69zm11 -1157c17,-10 35,-18 55,-25 21,-6 40,-9 59,-10l33 -148 30 -137c0,0 0,0 0,0 0,-1 0,-1 0,-1 -7,-12 -13,-34 -13,-37l-2 -1c-21,-13 -42,-31 -57,-56l-315 98c2,34 -7,69 -26,100l0 0 124 115 112 102zm336 867c0,-1 0,-1 0,-2 -4,-13 -2,-35 -2,-38l-1 -2c-16,-19 -31,-42 -38,-71l-330 0c-8,33 -27,63 -55,87l0 1 85 146 76 131c19,-4 39,-7 60,-7 21,0 41,3 59,7l75 -131 71 -121c0,0 0,0 0,0zm6 1126c0,0 0,0 0,-1 -4,-13 -2,-36 -2,-38l-1 -2c-16,-19 -31,-42 -38,-71l-190 0c38,80 80,159 126,236 5,9 11,19 17,29l18 -31 70 -121c0,0 0,0 0,-1zm-395 -1330l349 0c12,-27 31,-51 57,-70l-95 -164 -59 -101c-18,5 -37,9 -57,10 -16,1 -21,1 -21,1 -14,12 -43,30 -77,34 0,0 -6,0 -7,0 -6,0 -11,0 -17,-2l-33 58 -95 164c25,20 44,44 55,70zm421 1060c1,-1 2,-2 3,-3l-95 -164 -59 -102c-18,6 -37,10 -57,11 -15,1 -20,1 -20,1 -6,4 -13,9 -22,15 -15,8 -34,16 -56,19 0,0 -5,0 -7,0 -5,0 -11,-1 -17,-2l-33 58 -18 32c25,68 52,136 81,202l246 0c12,-26 30,-49 54,-67zm138 -2644c-9,-23 -17,-49 -16,-79l-316 -93c-17,29 -45,53 -78,68l0 0 40 165 35 147c20,1 40,4 60,10 21,6 39,14 55,23l109 -104 102 -96c0,0 0,0 0,-1 0,0 1,0 0,-1 1,-14 9,-35 10,-37l-1 -2zm-644 -333l341 77c17,-24 41,-43 70,-56l-56 -181 -35 -112c-19,2 -38,1 -58,-2 -15,-3 -20,-4 -20,-4 -17,8 -49,19 -83,16 0,0 -5,-1 -7,-1 -5,-2 -11,-3 -16,-6l-45 49 -129 140c21,24 33,51 38,80zm837 1557c0,0 0,0 0,-1 -3,-13 -2,-36 -2,-39l-1 -1c-16,-19 -31,-42 -37,-71l-331 0c-8,33 -27,63 -55,87l0 0 85 147 76 131c19,-5 39,-7 60,-7 21,0 41,2 59,7l76 -131 70 -122c0,0 0,0 0,0zm-259 1380c19,-5 39,-7 60,-7 22,0 41,2 59,7l0 0 76 -131 70 -122c0,0 0,0 0,0 0,0 0,0 0,-1 -3,-14 -2,-36 -1,-39l-2 -2c-16,-19 -31,-41 -37,-70l-331 0c-8,32 -27,63 -54,87l84 147 76 131zm-130 -1583l349 0c12,-27 31,-51 57,-70l-95 -165 -59 -101c-18,6 -37,9 -57,11 -15,1 -20,1 -20,1 -15,11 -44,29 -78,34 0,0 -5,0 -7,0 -5,0 -11,-1 -17,-2l-33 57 -95 165c26,20 44,43 55,70zm412 2457c0,-1 0,-1 0,-2 -3,-13 -2,-35 -1,-38l-1 -2c-16,-19 -31,-42 -38,-71l-224 0c61,81 126,158 195,233l69 -120c0,0 0,0 0,0zm-393 -1331l348 0c12,-25 30,-48 54,-67 1,-1 2,-1 3,-2l-95 -165 -59 -101c-18,6 -37,9 -57,10 -15,1 -20,1 -20,1 -6,5 -13,10 -22,15 -15,9 -34,17 -56,19 0,0 -5,0 -6,0 -6,0 -12,0 -18,-1l-33 57 -95 165c26,19 44,43 56,69zm410 1058l-95 -165 -59 -101c-17,5 -36,9 -56,10 -16,1 -21,1 -21,1 -15,12 -43,30 -78,34 0,0 -5,0 -6,0 -6,0 -12,0 -17,-1l-33 57 -66 113c27,41 54,82 83,121l291 0c12,-27 32,-50 57,-69zm-1105 -5278c-13,-9 -26,-21 -36,-38l-208 56c0,22 -7,45 -20,65l0 0 78 78 70 70c12,-6 24,-11 37,-15 14,-3 27,-5 39,-5l25 -96 24 -89c0,0 0,0 0,0 0,0 0,0 0,-1 -5,-8 -8,-22 -8,-24l-1 -1zm-366 1427c-2,-14 -3,-28 2,-44l-155 -89c-13,13 -30,22 -50,25l0 0 0 92 0 82c10,3 21,8 30,13 10,6 19,13 26,20l71 -41 66 -38c0,0 0,0 0,0 0,0 0,0 0,-1 2,-7 9,-17 10,-18l0 -1zm1035 -796c-12,-14 -23,-31 -28,-52l-242 0c-6,24 -20,46 -40,64l0 0 62 107 56 96c14,-4 28,-5 44,-5 15,0 30,2 43,5l55 -96 52 -89c0,0 0,0 0,0 0,0 0,0 -1,-1 -2,-10 -1,-26 0,-28l-1 -1zm-766 2128c-12,-12 -24,-26 -31,-46l-219 28c-3,23 -13,46 -29,65l0 1 69 95 62 85c13,-5 26,-8 40,-10 14,-2 27,-2 39,0l39 -98 36 -91c0,0 0,0 0,0 0,0 0,0 -1,-1 -3,-9 -4,-25 -4,-27l-1 -1zm1268 -1370c-21,-14 -42,-31 -57,-57l-316 97c2,33 -8,68 -27,99l0 0 124 116 111 103c17,-10 35,-19 55,-25 21,-6 40,-9 59,-10l34 -147 32 -137c0,0 0,0 -1,0 0,-1 0,-1 0,-2 -7,-11 -13,-33 -13,-36l-1 -1zm254 1303c-16,-19 -30,-42 -37,-71l-330 0c-9,33 -28,64 -55,88l-1 0 85 146 76 131c19,-4 39,-7 60,-7 22,0 41,3 59,7l76 -131 70 -121c0,0 0,0 0,0 0,-1 0,-1 0,-2 -3,-13 -2,-35 -1,-38l-2 -2zm-256 1421c19,-4 39,-7 60,-7 22,0 41,3 59,7l0 0 76 -130 70 -122c0,0 0,0 0,0 0,-1 0,-1 0,-2 -3,-13 -2,-35 -1,-38l-1 -2c-16,-19 -31,-42 -38,-71l-330 0c-9,33 -28,63 -55,87l84 147 76 131zm-130 -1583l349 0c12,-27 32,-50 57,-69l-95 -165 -59 -101c-18,6 -36,9 -57,10 -15,1 -20,1 -20,1 -15,12 -44,30 -78,34 0,0 -5,0 -7,0 -5,0 -11,0 -17,-1l-33 57 -95 165c26,19 44,43 55,69zm147 2710c19,-5 40,-7 61,-7 21,0 40,2 58,7l76 -131 70 -121c0,0 0,0 0,-1 0,0 0,0 0,-1 -3,-13 -2,-36 -1,-39l-1 -1c-16,-19 -31,-42 -38,-71l-330 0c-8,33 -28,63 -55,87l0 0 85 147 75 131zm-128 -1583l348 0c12,-26 30,-49 54,-67 1,-1 2,-2 3,-3l-95 -164 -59 -101c-17,5 -36,9 -56,10 -16,1 -21,1 -21,1 -6,4 -13,10 -22,15 -15,8 -34,16 -56,19 0,0 -5,0 -6,0 -6,0 -12,0 -17,-2l-33 58 -95 164c25,20 43,44 55,70zm370 2345l-57 0c32,25 63,50 96,75 0,-1 0,-2 0,-3l-1 -1c-16,-20 -31,-42 -38,-71zm-365 -1218l348 0c12,-27 32,-51 57,-70l-95 -164 -58 -102c-18,6 -37,10 -57,11 -16,1 -21,1 -21,1 -15,12 -43,30 -77,34 0,0 -6,0 -7,0 -6,0 -12,-1 -17,-2l-33 58 -95 164c25,20 43,44 55,70zm270 791c-18,6 -37,9 -57,11 -16,1 -21,1 -21,1 -15,11 -43,29 -77,34 0,0 -6,0 -7,0 -6,0 -11,-1 -17,-2l-33 57 -37 64c11,11 21,21 31,31 48,48 98,95 148,140l167 0c11,-27 31,-51 56,-70l-95 -165 -58 -101zm-1362 -5914c7,3 15,7 22,12 7,5 13,11 18,16l57 -27 54 -26c0,0 0,0 0,0 0,0 0,0 0,-1 2,-5 8,-13 9,-13l0 -1c-1,-11 0,-22 5,-34l-112 -78c-10,10 -24,16 -39,17l-1 0 -7 72 -6 63zm1085 434c9,-2 19,-4 30,-4 10,0 20,2 29,4l38 -65 34 -60c0,0 0,0 0,-1 0,0 0,0 0,0 -1,-7 -1,-18 0,-19l-1 -1c-8,-10 -15,-21 -19,-35l-164 0c-4,16 -13,31 -27,43l0 0 42 73 38 65zm520 478c18,-3 36,-4 55,-3 20,2 37,5 53,10l76 -114 70 -106c0,0 0,0 0,0 0,-1 0,-1 0,-1 -3,-13 0,-33 1,-35l-2 -2c-13,-18 -25,-39 -30,-66l-298 -18c-9,29 -28,56 -54,76l0 0 68 137 61 122zm-278 685c19,-5 40,-7 61,-7 21,0 40,3 59,7l75 -131 71 -121c0,0 0,0 0,0 0,-1 0,-1 -1,-2 -3,-13 -2,-36 -1,-38l-1 -2c-16,-19 -31,-42 -38,-71l-330 0c-8,33 -28,63 -55,87l0 1 85 146 75 131zm491 871c-16,-19 -31,-42 -38,-71l-330 0c-9,33 -28,63 -55,87l0 0 84 147 76 131c19,-5 39,-7 60,-7 22,0 41,3 59,7l76 -131 70 -121c0,0 0,0 0,-1 0,0 0,0 0,-1 -3,-13 -2,-36 -1,-38l-1 -2zm6 1127c-16,-19 -31,-42 -38,-71l-330 0c-8,33 -28,63 -55,87l84 147 76 131c19,-5 40,-7 60,-7 22,0 41,2 59,7l1 0 75 -131 70 -120c0,-2 0,-3 0,-4 -3,-14 -2,-35 -1,-37l-1 -2zm-6 401l14 0c-6,-55 -10,-112 -11,-169l-58 99c25,20 44,44 55,70zm-150 -2361l341 73c17,-24 41,-43 70,-56l-59 -181 -36 -111c-18,2 -37,1 -57,-2 -16,-2 -21,-3 -21,-3 -17,8 -48,20 -83,16 0,0 -5,-1 -6,-1 -6,-1 -11,-3 -17,-5l-44 49 -128 141c21,24 34,51 40,80zm-1324 -2128l147 101c13,-8 28,-13 44,-13l8 -97 4 -60c-9,-3 -18,-7 -27,-12 -7,-4 -9,-6 -9,-6 -10,1 -27,1 -43,-7 0,0 -2,-2 -3,-2 -2,-2 -4,-4 -6,-6l-31 15 -87 42c5,16 6,31 3,45zm170 855l217 -26c5,-17 16,-34 30,-47l-71 -96 -44 -58c-11,5 -23,8 -35,11 -10,1 -13,2 -13,2 -8,8 -25,21 -46,27 0,0 -3,0 -4,0 -3,1 -7,1 -11,0l-16 39 -47 109c18,10 31,24 40,39zm549 617l282 0c10,-22 25,-41 46,-56l-77 -133 -47 -82c-15,5 -30,8 -46,9 -13,0 -17,0 -17,0 -12,10 -35,24 -63,28 0,0 -4,0 -5,0 -5,0 -9,0 -14,-1l-26 46 -77 133c20,16 35,35 44,56zm-1626 1561l213 17c9,-19 23,-35 39,-48l-49 -122 -30 -76c-11,3 -23,5 -35,5 -10,0 -13,-1 -13,-1 -10,8 -28,20 -49,21 0,0 -4,0 -4,0 -4,-1 -7,-1 -11,-2l-23 39 -68 114c14,15 24,33 30,53zm273 -1356l256 152c22,-18 49,-30 77,-35l14 -183 9 -113c-16,-3 -32,-8 -48,-16 -11,-6 -15,-8 -15,-8 -17,4 -47,7 -74,-4 0,0 -4,-3 -5,-3 -4,-3 -8,-6 -12,-9l-54 35 -153 100c9,28 10,56 5,84zm985 450l323 -131c1,-29 10,-59 26,-86l-149 -117 -93 -71c-14,11 -30,22 -49,31 -14,6 -18,8 -18,8 -10,17 -29,44 -60,61 0,0 -5,2 -6,2 -5,3 -11,4 -16,5l-9 66 -26 188c30,9 56,24 77,44zm-654 1270l340 -78c6,-28 20,-56 40,-80l-129 -139 -80 -86c-16,10 -34,17 -53,23 -15,4 -20,5 -20,5 -12,15 -36,39 -68,51 0,0 -5,1 -7,1 -5,2 -11,2 -17,3l-19 63 -56 182c29,13 52,32 69,55zm1342 -606l349 0c11,-27 31,-51 56,-69l-95 -165 -59 -101c-17,5 -36,9 -56,10 -16,1 -21,1 -21,1 -15,12 -43,30 -78,34 0,0 -5,0 -6,0 -6,0 -12,0 -17,-1l-33 57 -95 165c25,19 43,43 55,69zm360 4180c-18,5 -36,9 -57,10 -15,1 -20,1 -20,1 -9,7 -21,15 -37,22 58,39 118,77 178,112 10,6 20,12 31,18l-36 -62 -59 -101zm-165 -1462c19,-5 40,-8 61,-8 21,1 40,3 59,8l75 -131 70 -122c0,0 0,0 0,0 0,0 0,-1 0,-1 -3,-14 -2,-36 -1,-39l-1 -2c-16,-19 -31,-41 -38,-70l-330 0c-8,32 -28,63 -55,87l0 0 85 147 75 131zm-128 -1583l348 0c12,-26 30,-49 54,-68 1,0 2,-1 3,-2l-95 -165 -58 -101c-18,6 -37,9 -57,11 -16,1 -21,1 -21,1 -5,4 -13,9 -22,14 -14,9 -34,17 -55,20 0,0 -6,0 -7,0 -6,0 -12,-1 -17,-2l-33 57 -95 165c25,20 43,43 55,70zm5 1126l349 0c11,-26 31,-50 56,-69l-95 -165 -58 -101c-18,6 -37,9 -57,10 -16,1 -21,1 -21,1 -15,12 -43,30 -77,34 0,0 -6,0 -7,0 -6,0 -11,0 -17,-1l-33 57 -95 165c25,19 44,43 55,69zm201 1576c21,0 41,3 59,7l75 -131 71 -121c0,0 0,0 0,0 0,-1 0,-1 0,-2 -4,-13 -2,-35 -2,-38l-1 -2c-16,-19 -31,-42 -38,-71l-330 0c-8,33 -27,64 -55,88l0 0 85 146 76 131c19,-4 39,-7 60,-7zm-183 -449l349 0c12,-27 31,-50 57,-69l-95 -165 -59 -101c-18,5 -37,9 -57,10 -16,1 -21,1 -21,1 -14,12 -43,30 -77,34 0,0 -6,0 -7,0 -6,0 -11,0 -17,-1l-33 57 -95 165c25,19 44,43 55,69zm469 -1234c0,0 1,0 2,0 -1,-3 -2,-6 -4,-9 -44,-114 -76,-233 -96,-356l-8 0c-8,33 -27,63 -55,87l0 1 85 146 76 131zm68 -1492l-191 0c-8,33 -28,64 -55,88l84 147 43 73c14,-50 30,-100 49,-148 22,-55 45,-108 70,-160zm-197 -91l246 0c33,-56 68,-110 106,-162l-42 -72 -58 -101c-18,6 -37,9 -57,10 -16,1 -21,1 -21,1 -5,5 -12,10 -21,15 -15,9 -35,17 -56,19 0,0 -6,0 -7,0 -6,0 -11,0 -17,-1l-33 57 -95 165c25,19 44,43 55,69zm367 -965c-15,-19 -30,-41 -37,-70l-330 0c-8,32 -28,63 -55,87l0 0 84 147 76 131c19,-5 39,-8 61,-8 21,1 40,3 58,8l76 -131 70 -122c0,0 0,0 0,0 0,0 0,-1 0,-1 -3,-14 -2,-36 -1,-39l-2 -2zm17 -1609l191 49c10,-13 24,-23 40,-30l-28 -103 -18 -64c-11,1 -21,0 -33,-2 -8,-2 -11,-2 -11,-2 -10,4 -28,10 -47,7 0,0 -3,-1 -4,-1 -3,-1 -6,-2 -9,-3l-26 27 -75 76c11,14 18,30 20,46zm-238 5284c19,-5 39,-7 60,-7 21,0 41,2 59,7l76 -131 70 -121c0,0 0,0 0,-1 0,0 0,0 0,-1 -3,-13 -2,-36 -2,-39l-1 -1c-16,-19 -31,-42 -38,-71l-330 0c-8,33 -27,63 -55,87l0 0 85 147 76 131zm-123 -456l349 0c12,-27 31,-51 57,-70l-95 -164 -59 -102c-18,6 -37,10 -57,11 -16,1 -20,1 -20,1 -15,12 -44,30 -78,34 0,0 -5,0 -7,0 -5,0 -11,-1 -17,-2l-33 58 -95 164c25,20 44,44 55,70zm407 1330c0,0 0,0 0,-1 -3,-14 -2,-36 -1,-39l-1 -1c-16,-20 -31,-42 -38,-71l-330 0c-9,33 -28,63 -55,87l0 0 84 147 76 131c19,-5 39,-7 60,-7 22,0 41,2 59,7l76 -131 70 -122c0,0 0,0 0,0zm-388 -203l348 0c12,-27 32,-51 57,-70l-95 -165 -59 -101c-17,6 -36,9 -57,11 -15,1 -20,1 -20,1 -15,11 -43,29 -78,34 0,0 -5,0 -6,0 -6,0 -12,-1 -18,-2l-33 57 -95 165c26,19 44,43 56,70zm614 -3853l-287 0c-8,33 -28,63 -55,87l85 147 5 10c18,-22 37,-43 56,-64 60,-66 125,-126 196,-180zm38 -1064c-12,-21 -24,-46 -27,-75l-326 -49c-13,31 -36,58 -67,78l0 0 62 158 55 140c20,-1 40,-1 61,2 21,4 40,9 57,16l94 -118 88 -110c0,0 0,0 0,0 0,-1 0,-1 0,-2 -1,-13 3,-35 4,-38l-1 -2zm-461 -226l343 63c17,-25 40,-45 69,-59l-64 -179 -39 -110c-19,2 -38,2 -58,0 -16,-2 -21,-3 -21,-3 -16,9 -48,22 -82,20 0,0 -5,-1 -7,-2 -5,-1 -11,-2 -16,-4l-43 50 -123 145c21,24 35,51 41,79zm130 1199l349 0c11,-26 30,-49 54,-67 1,-1 2,-2 3,-3l-95 -164 -59 -102c-18,6 -37,10 -57,11 -16,1 -21,1 -21,1 -5,4 -12,9 -21,15 -15,8 -34,16 -56,19 0,0 -6,0 -7,0 -6,0 -11,-1 -17,-2l-33 58 -95 164c25,20 44,44 55,70zm252 4598c53,18 108,35 163,50 1,0 2,0 4,1 -10,-15 -18,-31 -23,-51l-144 0zm178 -1014c0,-1 0,-1 0,-2 -3,-13 -2,-35 -1,-38l-1 -2c-16,-19 -31,-42 -38,-71l-330 0c-8,33 -28,64 -55,88l0 0 84 146 76 131c19,-4 40,-7 61,-7 21,0 40,3 58,7l76 -131 70 -121c0,0 0,0 0,0zm-388 -204l348 0c12,-27 32,-50 57,-69l-95 -165 -58 -101c-18,5 -37,9 -57,10 -16,1 -21,1 -21,1 -15,12 -43,30 -77,34 0,0 -6,0 -7,0 -6,0 -12,0 -17,-1l-33 57 -95 165c25,19 43,43 55,69zm270 792c-18,5 -37,9 -57,10 -16,1 -21,1 -21,1 -15,12 -43,30 -77,34 0,0 -6,0 -7,0 -6,0 -11,0 -17,-2l-33 58 -95 164c25,20 44,44 55,70l349 0c11,-27 31,-51 56,-70l-95 -164 -58 -101zm231 -5459c15,-13 32,-24 51,-33 19,-9 38,-15 56,-20l10 -150 10 -141c0,0 0,0 0,0 0,0 -1,0 -1,-1 -9,-10 -18,-31 -18,-34l-2 -1c-23,-10 -46,-24 -65,-47l-296 146c7,33 3,69 -11,102l0 1 140 94 126 84zm194 885c-16,-19 -31,-41 -38,-70l-330 0c-8,32 -28,63 -55,87l85 147 76 131c19,-5 39,-7 60,-7 21,0 41,2 59,7l0 0 76 -131 70 -122c0,0 0,0 0,0 0,0 0,0 0,-1 -4,-14 -3,-36 -2,-39l-1 -2zm-132 3440c-67,-30 -131,-64 -192,-102 -10,22 -26,42 -45,59l0 0 84 147 76 131c19,-5 40,-7 61,-7 21,0 40,2 59,7l75 -131 28 -48c-50,-15 -98,-34 -146,-56zm-242 -3601l349 0c11,-26 30,-49 54,-68 1,-1 2,-1 3,-2l-95 -165 -59 -101c-18,6 -37,9 -57,11 -15,0 -20,0 -20,0 -6,5 -13,10 -22,15 -15,9 -34,17 -56,19 0,0 -6,0 -7,0 -5,0 -11,0 -17,-1l-33 57 -95 165c25,19 44,43 55,70zm434 4669c-16,-20 -31,-42 -38,-71l-330 0c-8,33 -28,63 -55,87l85 147 75 131c20,-5 40,-7 61,-7 21,0 41,2 59,7l0 0 75 -131 71 -122c0,0 0,0 0,0 0,0 0,0 -1,-1 -3,-14 -2,-36 -1,-39l-1 -1zm31 -232l-94 -165 -59 -101c-18,6 -37,9 -57,11 -16,1 -21,1 -21,1 -15,11 -43,29 -77,34 0,0 -6,0 -7,0 -6,0 -11,-1 -17,-2l-33 57 -95 165c25,19 44,43 55,70l349 0c12,-27 31,-51 56,-70zm203 -4093l-9 -15 -59 -102c-18,6 -37,10 -57,11 -15,1 -20,1 -20,1 -15,12 -43,30 -78,34 0,0 -5,0 -7,0 -5,0 -11,-1 -17,-2l-33 58 -53 92c106,-38 216,-63 333,-77zm69 -746c-16,-19 -31,-42 -38,-71l-330 0c-8,33 -27,63 -55,87l85 148 76 130c19,-4 39,-7 60,-7 21,0 41,3 59,7l0 0 76 -130 70 -122c0,0 0,0 0,0 0,-1 0,-1 0,-2 -4,-13 -2,-35 -2,-38l-1 -2zm-122 -497c-18,5 -37,9 -57,10 -16,1 -21,1 -21,1 -5,5 -12,10 -21,15 -15,8 -34,16 -56,19 0,0 -6,0 -7,0 -6,0 -11,0 -17,-1l-33 57 -95 165c25,19 44,43 55,69l349 0c11,-26 30,-49 54,-67 1,-1 2,-2 3,-2l-95 -165 -59 -101zm-20 5291c21,1 41,3 59,7l0 0 76 -130 70 -122c0,0 0,0 0,0 0,0 0,-1 0,-1 -4,-14 -3,-36 -2,-39l-1 -2c-16,-19 -31,-41 -38,-71l-330 0c-8,33 -27,64 -55,88l85 147 75 130c20,-4 40,-7 61,-7zm220 842l-1 -2c-16,-19 -31,-42 -38,-71l-330 0c-8,33 -27,63 -55,87l0 1 23 39c122,19 247,31 374,36l29 -50c0,0 0,0 0,0 0,-1 0,-1 0,-2 -4,-13 -2,-35 -2,-38zm-392 -1291l349 0c12,-27 31,-50 57,-69l-84 -146c-93,-7 -182,-22 -267,-44l-15 25 -95 165c26,19 44,43 55,69zm257 792c-18,5 -37,9 -57,10 -16,1 -20,1 -20,1 -15,12 -44,30 -78,34 0,0 -5,0 -7,0 -5,0 -11,0 -17,-2l-33 58 -95 164c25,20 44,44 55,70l349 0c12,-27 31,-51 57,-70l-95 -164 -59 -101zm381 563c-17,6 -36,9 -56,10 -16,1 -21,1 -21,1 -6,6 -15,12 -26,17 39,0 79,-1 118,-2l-3 -6 -12 -20zm-223 -1565l60 103c19,-5 39,-7 60,-7 21,0 41,3 59,7l0 0 64 -110c-62,6 -124,8 -186,8 -19,0 -38,0 -57,-1zm262 -4698c-16,-19 -31,-42 -38,-71l-330 0c-8,33 -27,63 -55,87l85 147 76 131c19,-5 39,-7 60,-7 21,0 41,3 59,7l0 0 76 -131 70 -122c0,0 0,0 0,0 0,0 0,0 0,-1 -4,-13 -2,-36 -2,-38l-1 -2zm-78 1303l8 -13 70 -122c0,0 0,0 0,0 0,0 0,-1 0,-1 -3,-14 -2,-36 -1,-39l-2 -2c-15,-19 -30,-41 -37,-70l-330 0c-8,32 -28,63 -55,87l-1 0 85 147 6 10c36,-2 73,-3 110,-3 50,0 99,2 147,6zm-296 -1465l349 0c11,-26 30,-49 54,-68 1,0 2,-1 3,-2l-19 -33c-62,-3 -125,-5 -188,-5 -80,0 -159,3 -237,8l-17 30c26,20 44,43 55,70zm6 1127l348 0c12,-27 32,-51 57,-70l-95 -165 -59 -101c-18,6 -36,9 -56,11 -16,0 -21,0 -21,0 -15,12 -43,30 -78,34 0,0 -5,0 -6,0 -6,0 -12,0 -17,-1l-34 57 -94 165c25,19 43,43 55,70zm243 4956c22,0 41,2 59,7l76 -131 70 -122c0,0 0,0 0,0 0,0 0,0 0,-1 -3,-14 -2,-36 -1,-39l-2 -1c-16,-20 -31,-42 -37,-71l-331 0c-8,33 -27,63 -54,87l-1 0 85 147 76 131c19,-5 39,-7 60,-7zm-183 -449l348 0c12,-27 31,-51 57,-70l-95 -165 -59 -101c-18,6 -37,9 -57,11 -15,1 -20,1 -20,1 -15,11 -43,29 -78,34 0,0 -5,0 -6,0 -6,0 -12,-1 -18,-2l-33 57 -95 165c26,19 44,43 56,70zm689 -4909c-16,-19 -31,-42 -38,-71l-330 0c-8,33 -28,63 -55,87l0 1 84 146 76 131c19,-4 39,-7 61,-7 21,0 40,3 58,7l76 -131 70 -121c0,0 0,0 0,0 0,-1 0,-1 0,-2 -3,-13 -2,-35 -1,-38l-1 -2zm-116 629c-18,6 -37,10 -57,11 -16,1 -21,1 -21,1 -15,12 -43,30 -77,34 0,0 -6,0 -7,0 -6,0 -12,-1 -17,-2l-33 58 -12 20c99,14 194,37 286,68 20,7 40,15 60,22l-64 -110 -58 -102zm-19 -1126c-18,5 -36,9 -56,10 -16,1 -21,1 -21,1 -15,12 -43,30 -78,34 0,0 -5,0 -6,0 -6,0 -12,0 -18,-1l-33 57 -95 165c26,19 44,43 56,69l348 0c12,-27 32,-51 57,-69l-95 -165 -59 -101zm162 3950l18 -31c0,0 0,0 0,0 0,0 0,0 0,-1 -3,-14 -2,-36 -2,-39l-1 -2c-5,-6 -10,-12 -15,-19l0 92zm-230 1348c19,-4 39,-7 60,-7 22,0 41,3 59,7l76 -131 70 -121c0,0 0,0 0,0 0,-1 0,-1 0,-2 -3,-13 -2,-35 -1,-38l-2 -2c-16,-19 -30,-42 -37,-71l-330 0c-9,33 -28,64 -55,88l-1 0 85 146 76 131zm230 -1602c12,-19 28,-36 47,-50l-47 -81 0 131zm-353 1146l348 0c12,-27 32,-50 57,-69l-95 -165 -22 -39c-88,17 -171,32 -250,43 0,0 -1,0 -1,0l-92 161c25,19 43,43 55,69zm404 1291l-1 -2c-16,-19 -31,-42 -38,-71l-330 0c-8,33 -28,63 -55,87l0 1 40 70c92,-5 185,-13 280,-25 34,-4 68,-8 101,-13l5 -7c0,0 0,0 0,0 0,-1 0,-1 -1,-2 -3,-13 -2,-35 -1,-38zm-123 -479l-11 -20c-18,5 -37,9 -57,10 -16,1 -21,1 -21,1 -15,12 -43,30 -78,34 0,0 -5,0 -6,0 -6,0 -12,0 -17,-2l-33 58 -95 164c25,20 43,44 55,70l349 0c11,-27 31,-51 56,-70l-95 -164 -47 -81zm2 -5882l313 0c-119,-32 -241,-57 -366,-74l-2 4c25,20 43,43 55,70zm-37 178l0 0 84 147 76 131c19,-5 39,-7 61,-7 21,0 40,2 58,7l76 -131 70 -122c0,0 0,0 0,0 0,0 0,0 0,-1 -3,-13 -2,-36 -1,-39l-1 -1c-16,-19 -31,-42 -38,-71l-330 0c-8,33 -28,63 -55,87zm460 1110c-16,-19 -31,-41 -38,-70l-330 0c-8,32 -27,63 -55,87l0 0 85 147 75 131c20,-5 40,-8 61,-8 21,1 41,3 59,8l75 -131 71 -122c0,0 0,0 0,0 0,0 0,-1 0,-1 -4,-14 -3,-36 -2,-39l-1 -2zm-385 -161l349 0c11,-27 31,-51 57,-70l-95 -165 -59 -101c-18,6 -37,9 -57,11 -16,0 -21,0 -21,0 -15,12 -43,30 -77,34 0,0 -6,0 -7,0 -6,0 -11,0 -17,-1l-33 57 -95 165c25,19 44,43 55,70zm80 2398c-28,31 -43,68 -47,113l39 67 76 131c19,-4 39,-7 60,-7 22,0 41,3 59,7l0 0 76 -130 70 -122c0,0 0,0 0,0 0,-1 0,-1 0,-2 -3,-13 -2,-35 -1,-38l-2 -2c-16,-19 -30,-42 -37,-71l-163 0c-58,2 -101,20 -130,54zm85 1438c19,-5 39,-7 60,-7 22,0 41,2 59,7l76 -131 70 -121c0,0 0,0 0,-1 0,0 0,0 0,-1 -3,-13 -2,-36 -1,-39l-1 -1c-16,-19 -31,-42 -38,-71l-330 0c-5,20 -15,40 -28,57l0 79 57 98 76 131zm-133 -474c4,5 7,12 10,18l348 0c12,-27 32,-51 57,-70l-95 -164 -58 -102c-18,6 -37,10 -57,11 -16,1 -21,1 -21,1 -15,12 -43,30 -77,34 0,0 -6,0 -7,0 -6,0 -12,-1 -17,-2l-34 58 -49 85 0 131zm211 1594c21,0 41,2 59,7l75 -131 71 -122c0,0 0,0 0,0 0,0 0,0 -1,-1 -3,-14 -2,-36 -1,-39l-1 -1c-16,-20 -31,-42 -38,-71l-330 0c-8,33 -28,63 -55,87l0 0 85 147 75 131c20,-5 40,-7 61,-7zm-183 -449l349 0c11,-27 31,-51 56,-70l-95 -165 -47 -81 -11 -20c-18,6 -37,9 -57,11 -16,1 -21,1 -21,1 -15,11 -43,29 -77,34 0,0 -6,0 -7,0 -6,0 -11,-1 -17,-2l-33 57 -95 165c25,19 43,43 55,70zm359 -3849c62,40 113,52 150,36 20,-8 41,-22 62,-40l-217 0c1,1 3,3 5,4zm14 4559c28,-6 56,-12 84,-19 47,-12 94,-24 140,-37l-198 0c-4,20 -14,39 -26,56zm315 -5619c-16,-19 -31,-42 -38,-71l-330 0c-8,33 -27,63 -55,87l0 1 85 146 76 131c19,-4 39,-7 60,-7 21,0 41,3 59,7l76 -131 70 -121c0,0 0,0 0,0 0,-1 0,-1 0,-2 -4,-13 -2,-35 -2,-38l-1 -2zm-190 -487c-16,1 -21,1 -21,1 -15,12 -43,30 -77,34 0,0 -6,0 -7,0 -6,0 -11,0 -17,-1l-33 57 -95 165c25,19 44,43 55,69l349 0c11,-27 31,-51 56,-69l-95 -165 -58 -101c-18,5 -37,9 -57,10zm-176 1452l325 0 66 -94 -81 -140 -59 -102c-18,6 -36,10 -57,11 -15,1 -20,1 -20,1 -15,12 -44,30 -78,34 0,0 -5,0 -7,0 -5,0 -11,-1 -17,-2l-33 58 -95 164c26,20 44,44 56,70zm411 2457c0,0 0,-1 0,-1 -3,-14 -2,-36 -1,-39l-1 -2c-16,-19 -31,-41 -38,-70l-330 0c-8,32 -28,63 -55,87l0 0 84 147 76 131c19,-5 40,-8 61,-8 21,1 40,3 59,8l75 -131 70 -122c0,0 0,0 0,0zm-78 -438l-58 -101c-18,6 -37,9 -57,10 -16,1 -21,1 -21,1 -15,12 -43,30 -77,34 0,0 -6,0 -7,0 -6,0 -11,0 -17,-1l-33 57 -95 165c25,19 43,43 55,69l349 0c11,-26 31,-50 56,-69l-95 -165zm-169 1817c19,-4 39,-7 60,-7 21,0 41,3 59,7l75 -131 71 -121c0,0 0,0 0,0 0,-1 0,-1 -1,-2 -3,-13 -2,-35 -1,-38l-1 -2c-16,-19 -31,-42 -38,-71l-330 0c-8,33 -27,64 -55,88l0 0 85 146 76 131zm-123 -456l349 0c11,-27 31,-50 57,-69l-95 -165 -48 -81 -11 -20c-18,5 -37,9 -57,10 -16,1 -21,1 -21,1 -15,12 -43,30 -77,34 0,0 -6,0 -7,0 -6,0 -11,0 -17,-1l-33 57 -95 165c25,19 44,43 55,69zm270 792c-18,5 -37,9 -57,10 -15,1 -20,1 -20,1 -15,12 -44,30 -78,34 0,0 -5,0 -7,0 -5,0 -11,0 -17,-2l-33 58 -95 164c26,20 44,44 55,70l349 0c12,-27 31,-51 57,-70l-95 -164 -59 -101zm136 -4348l205 -296 -271 0c-8,32 -28,63 -55,87l0 0 84 147 37 62zm20 -1058c19,-5 39,-7 60,-7 21,0 41,2 59,7l75 -131 9 -16c-108,-61 -220,-115 -334,-164 -8,12 -18,23 -30,33l0 0 85 147 76 131zm-104 671l348 0c10,-24 26,-45 47,-62l8 -12 -93 -161 -58 -101c-18,6 -37,9 -57,11 -16,0 -21,0 -21,0 -15,12 -43,30 -78,34 0,0 -5,0 -6,0 -6,0 -12,0 -18,-1l-33 57 -95 165c26,19 44,43 56,70zm409 2415c-16,-19 -31,-42 -38,-71l-330 0c-8,33 -27,63 -55,87l0 1 85 146 75 131c20,-4 40,-7 61,-7 21,0 41,3 59,7l75 -131 71 -121c0,0 0,0 0,0 0,-1 0,-1 -1,-2 -3,-13 -2,-35 -1,-38l-1 -2zm20 1168c0,0 0,0 0,-1 -4,-13 -2,-36 -2,-39l-1 -1c-16,-19 -31,-42 -38,-71l-330 0c-8,33 -27,63 -55,87l0 0 85 147 76 131c19,-5 39,-7 60,-7 21,0 41,2 59,7l76 -131 70 -121c0,0 0,0 0,-1zm18 -273l-95 -164 -47 -82 -12 -20c-18,6 -37,10 -57,11 -16,1 -20,1 -20,1 -15,12 -44,30 -78,34 0,0 -5,0 -7,0 -6,0 -11,-1 -17,-2l-33 58 -95 164c25,20 44,44 55,70l349 0c12,-27 31,-51 57,-70zm1 1400c0,0 0,0 0,-1 -3,-14 -2,-36 -1,-39l-2 -1c-16,-20 -30,-42 -37,-71l-330 0c-9,33 -28,63 -55,87l-1 0 85 147 76 131c19,-5 39,-7 60,-7 22,0 41,2 59,7l76 -131 70 -122c0,0 0,0 0,0zm-389 -203l349 0c12,-27 32,-51 57,-70l-95 -165 -59 -101c-18,6 -36,9 -57,11 -15,1 -20,1 -20,1 -15,11 -43,29 -78,34 0,0 -5,0 -6,0 -6,0 -12,-1 -18,-2l-33 57 -95 165c26,19 44,43 55,70zm304 -5071l284 0c-25,-47 -62,-85 -111,-113 -49,-33 -99,-64 -149,-94l-80 138c26,19 44,43 56,69zm-37 178l0 1 84 146 49 84 172 -247c15,-25 25,-48 29,-71l-279 0c-8,33 -28,63 -55,87zm310 5131c-16,1 -21,1 -21,1 -15,12 -43,30 -77,34 0,0 -6,0 -7,0 -6,0 -12,0 -17,-2l-33 58 -88 151c121,-55 233,-118 336,-188 0,0 0,-1 1,-1l-37 -63c-18,5 -37,9 -57,10zm156 -1725c0,0 0,-1 0,-1 -4,-14 -2,-36 -1,-39l-2 -2c-16,-19 -31,-41 -38,-70l-330 0c-8,32 -27,63 -54,87l-1 0 85 147 76 131c19,-5 39,-8 60,-8 22,1 41,3 59,8l76 -131 70 -122c0,0 0,0 0,0zm18 -273l-95 -165 -47 -81 -12 -20c-18,6 -37,9 -57,10 -15,1 -20,1 -20,1 -15,12 -44,30 -78,34 0,0 -5,0 -7,0 -5,0 -11,0 -17,-1l-33 57 -95 165c26,19 44,43 55,69l349 0c12,-26 31,-50 57,-69zm-264 1652c19,-4 39,-7 60,-7 22,0 41,3 59,7l76 -131 70 -121c0,0 0,0 0,0 0,-1 0,-1 0,-2 -3,-13 -2,-35 -1,-38l-2 -2c-15,-19 -30,-42 -37,-71l-330 0c-8,33 -28,64 -55,88l0 0 84 146 76 131zm187 -690l-59 -101c-17,5 -36,9 -56,10 -16,1 -21,1 -21,1 -15,12 -43,30 -78,34 0,0 -5,0 -6,0 -6,0 -12,0 -18,-1l-33 57 -94 165c25,19 43,43 55,69l348 0c12,-27 32,-50 57,-69l-95 -165zm48 -1313c-5,-4 -9,-7 -14,-10 -9,17 -22,32 -38,45l0 1 85 146 40 69 0 -114c0,-57 -25,-103 -73,-137zm-50 914c25,20 43,44 55,70l68 0 0 -283 -28 49 -95 164zm18 248l0 0 84 147 21 35 0 -269 -50 0c-8,33 -28,63 -55,87z"/>
  <path class="fil1" d="M8796 4682c208,0 402,39 581,116 180,78 337,184 472,319 135,135 241,292 319,471 77,179 116,373 116,581l0 1194c0,208 -39,402 -116,581 -78,179 -184,337 -319,474 -135,138 -292,245 -472,322 -179,78 -373,116 -581,116l-299 0 0 -590 299 0c199,0 375,-57 528,-169 153,-113 260,-258 322,-435l-850 0c-204,0 -396,-39 -578,-116 -181,-78 -341,-185 -478,-322 -137,-137 -245,-297 -322,-478 -78,-181 -116,-374 -116,-577 0,-208 38,-402 116,-581 77,-179 185,-336 322,-471 137,-135 297,-241 478,-319 182,-77 374,-116 578,-116zm-903 1487c0,124 23,241 69,351 47,111 111,207 193,289 82,82 178,146 289,193 111,46 228,69 352,69l903 0 0 -902c0,-124 -23,-240 -69,-349 -47,-108 -111,-203 -193,-285 -82,-82 -178,-146 -289,-193 -111,-46 -228,-69 -352,-69 -124,0 -241,23 -352,69 -111,47 -207,111 -289,193 -82,82 -146,177 -193,285 -46,109 -69,225 -69,349z"/>
  <path class="fil1" d="M12030 4682c208,0 401,39 580,117 179,77 335,183 470,318 135,135 241,292 318,471 77,179 116,373 116,581l0 1492 -1484 0c-203,0 -395,-38 -576,-116 -181,-77 -340,-184 -477,-322 -137,-137 -244,-296 -322,-477 -77,-182 -115,-374 -115,-577 0,-208 38,-402 115,-581 78,-179 185,-336 322,-471 137,-135 296,-241 477,-318 181,-78 373,-117 576,-117zm894 2389l0 -902c0,-124 -23,-240 -69,-349 -47,-108 -111,-203 -192,-285 -82,-82 -177,-146 -285,-192 -108,-47 -224,-70 -348,-70 -124,0 -241,23 -351,70 -110,46 -207,110 -288,192 -82,82 -146,177 -192,285 -47,109 -70,225 -70,349 0,123 23,241 70,351 46,111 110,207 192,289 81,82 178,146 288,192 110,47 227,70 351,70l894 0z"/>
  <path class="fil1" d="M15250 4682c207,0 400,39 578,116 178,78 336,184 472,319 137,135 243,292 320,471 78,179 116,372 116,580 0,203 -38,396 -116,577 -77,181 -183,341 -320,478 -136,137 -294,244 -472,321 -178,78 -371,117 -578,117l-891 0 0 1194 -588 0 0 -2687c0,-208 39,-401 116,-580 77,-179 183,-336 317,-471 134,-135 292,-241 472,-319 180,-77 372,-116 574,-116zm0 2388c124,0 240,-23 350,-69 110,-47 206,-111 288,-193 81,-82 145,-178 191,-288 46,-111 69,-228 69,-352 0,-124 -23,-240 -69,-348 -46,-108 -110,-204 -191,-285 -82,-82 -178,-146 -288,-193 -110,-46 -226,-69 -350,-69 -123,0 -238,23 -346,69 -108,47 -203,111 -284,193 -82,81 -145,177 -192,285 -46,108 -69,224 -69,348l0 902 891 0z"/>
  <polygon class="fil1" points="23938,3511 24526,3511 24526,7664 23938,7664 "/>
  <path class="fil1" d="M23267 6600l416 418 -205 205c-141,142 -302,250 -482,325 -181,76 -370,113 -568,113 -198,0 -387,-37 -568,-113 -180,-75 -341,-183 -482,-325 -145,-146 -253,-310 -323,-494 -71,-184 -106,-370 -106,-561 0,-190 35,-376 106,-557 70,-181 178,-345 323,-491 146,-146 309,-255 492,-328 183,-73 369,-110 558,-110 189,0 375,37 558,110 183,73 347,182 492,328l205 206 -1644 1652c167,84 344,111 531,83 187,-29 351,-114 492,-256l205 -205zm-1473 -1069c-176,177 -264,390 -264,637 0,137 31,268 93,392 52,-53 133,-134 241,-242 107,-109 222,-224 343,-345 121,-122 238,-238 350,-349 112,-110 199,-196 261,-258 -168,-84 -345,-113 -532,-87 -187,27 -351,111 -492,252z"/>
  <path class="fil0" d="M20873 4431l-262 -1c-6,26 -22,50 -43,69l67 117 60 104c4,-1 8,-2 12,-3l181 -251 26 -35 -41 0zm-355 108l0 0c-14,4 -29,7 -45,8 -12,1 -16,1 -16,1 -5,3 -10,7 -18,11 -11,7 -27,14 -44,16 0,0 -4,0 -5,0 -5,0 -9,-1 -14,-1l-26 45 -75 131c20,15 34,34 44,55l276 0c9,-21 24,-39 43,-54 0,0 1,-1 2,-1l-75 -131 -47 -80zm-195 338l0 0c-6,26 -22,50 -43,69l67 117 49 86 191 -265c-1,-2 -1,-5 -2,-7l-262 0zm67 -393l0 0 0 1c0,12 -9,25 -14,32 0,1 0,2 0,2 0,4 3,6 6,6 1,0 2,0 2,0 21,-3 41,-23 46,-28 7,1 14,1 21,1 54,0 98,-29 107,-68l-214 0c5,23 22,42 46,54zm-160 501l0 0c-14,5 -29,8 -45,9 -12,0 -16,0 -16,0 -5,4 -10,8 -17,12 -12,7 -27,13 -45,15 0,0 -4,0 -5,0 -5,0 -9,0 -14,-1l-26 46 -75 130c20,16 35,35 44,55l276 0c9,-20 24,-38 43,-53 1,-1 1,-1 2,-2l-75 -130 -47 -81zm-116 -265l0 0c15,-4 31,-6 48,-6 17,0 32,2 47,6l59 -104 56 -96c0,0 0,0 0,-1 0,0 0,0 0,-1 -2,-10 -2,-28 -1,-30l-1 -2c-13,-15 -24,-33 -30,-56l-119 0 -125 175 6 11 60 104zm-122 673l0 0 67 116 4 8 30 52 177 -245 -235 0c-6,26 -22,50 -43,69zm97 -429l0 0c0,0 -1,1 -1,2 0,3 3,6 6,6 1,0 2,0 2,0 21,-3 41,-23 46,-29 7,1 14,2 21,2 60,0 109,-37 109,-82 0,-45 -49,-81 -109,-81 -60,0 -109,36 -109,81 0,28 19,53 48,68l0 0c0,13 -9,26 -13,33zm-100 548l0 0 -47 -80c-14,5 -29,7 -45,8 -12,1 -16,1 -16,1 -5,4 -10,8 -17,12 -12,7 -27,13 -45,15 0,0 -4,0 -5,0 -4,0 -9,0 -14,-1l-26 45 -75 131c20,15 35,34 44,55l258 0 53 -74 -32 -54 -33 -58zm61 -762l0 0 -48 -82 -99 137 102 0c9,-22 25,-40 45,-55zm-224 416l0 0c15,-3 31,-5 48,-5 17,0 32,2 47,5l60 -103 55 -97c0,0 0,0 0,0 0,0 0,0 0,-1 -2,-11 -1,-28 -1,-31l-1 -1c-12,-15 -24,-33 -30,-56l-153 0 -106 148 21 38 60 103zm-25 244l0 0c0,1 -1,2 -1,3 0,3 3,6 6,6 1,0 2,0 2,0 21,-4 41,-23 46,-29 7,1 14,2 21,2 60,0 109,-37 109,-82 0,-45 -49,-82 -109,-82 -60,0 -109,37 -109,82 0,28 19,53 48,68l0 0c0,13 -9,26 -13,32zm-92 425l0 0 97 133 142 -198 -201 0c-6,24 -19,47 -38,65zm53 -639l0 0 -63 -108 -118 163 136 0c9,-21 25,-40 45,-55zm-69 313l0 0 55 -96c0,0 0,0 0,0 0,-1 0,-1 0,-1 -2,-11 -1,-29 -1,-31l-1 -1c-12,-15 -24,-33 -30,-56l-187 0 -88 122 -7 10 67 92 46 63c12,-2 25,-4 39,-4 17,1 32,3 47,6l60 -104zm-100 166l0 0 89 122c9,-12 14,-26 14,-40 0,-44 -46,-79 -103,-82z"/>
  <polygon class="fil2" points="19260,5673 19648,6202 20692,7661 19974,7662 19259,6670 18543,7663 17825,7662 18904,6167 17827,4682 18545,4681 19216,5613 19217,5613 19260,5673 "/>
  <g id="_952416656">
   <polygon class="fil1" points="16990,4682 17571,4682 17571,7661 16990,7661 "/>
   <g>
    <path class="fil3" d="M17383 3939c0,5 0,11 -2,16 -2,7 -5,15 -10,21 -17,26 -53,44 -95,44 -7,0 -14,-1 -20,-2 -5,6 -25,25 -45,28 0,0 -2,0 -2,0 -3,0 -6,-3 -6,-6 0,0 0,-1 0,-2 4,-7 13,-20 13,-32l0 0c-28,-15 -47,-39 -47,-67 0,-11 3,-22 9,-31 2,-4 4,-7 6,-9 18,-24 53,-40 92,-40 60,0 107,36 107,80z"/>
    <path class="fil1" d="M17497 4320l-211 1 -212 1 105 -184 1 -2c30,-9 57,-40 63,-50 11,2 22,3 33,3 27,0 54,-6 77,-17l38 65 106 183z"/>
    <path class="fil1" d="M17780 3880l-212 1 -137 1c-10,-21 -25,-39 -44,-54l74 -129 105 -184 107 183 107 182z"/>
    <path class="fil1" d="M17121 3882l-132 1 -212 1 105 -184 105 -184 107 183 74 126c-15,11 -27,24 -37,39 -4,5 -7,11 -10,17l0 1z"/>
    <path class="fil1" d="M17064 3513l211 -1 212 -1 -105 184 -58 101c-15,-4 -31,-6 -48,-6 -16,0 -32,2 -47,6l-59 -100 -106 -183z"/>
    <path class="fil1" d="M16780 3953l212 -1 116 0c4,34 20,65 44,89l-54 94 -105 184 -106 -183 -107 -183z"/>
    <path class="fil1" d="M17443 3952l129 -1 211 -1 -105 184 -105 184 -106 -183 -60 -103c7,-7 13,-15 18,-24 7,-12 12,-26 15,-40 2,-5 3,-11 3,-16z"/>
   </g>
  </g>
  <g id="_952396592">
   <polygon class="fil1" points="6462,4682 7046,4682 7046,7661 6462,7661 "/>
   <g>
    <path class="fil3" d="M6861 3939c0,5 -1,10 -2,15 -2,8 -6,15 -10,22 -18,25 -54,43 -95,43 -7,0 -14,-1 -21,-1 -5,5 -24,24 -45,28 0,0 -1,0 -2,0 -3,0 -6,-3 -6,-6 0,-1 0,-2 0,-3 4,-6 13,-19 13,-31l1 -1c-29,-14 -47,-39 -47,-66 0,-12 3,-22 8,-32 2,-3 4,-6 6,-9 19,-24 53,-40 93,-40 59,0 107,36 107,81z"/>
    <path class="fil1" d="M6971 4318l-212 1 -211 1 105 -184 1 -2c30,-10 57,-41 63,-50 10,1 22,2 33,2 27,0 53,-6 76,-16l38 65 107 183z"/>
    <path class="fil1" d="M7254 3878l-212 1 -137 1c-10,-21 -25,-40 -44,-54l74 -130 105 -184 107 183 107 183z"/>
    <path class="fil1" d="M6594 3880l-131 0 -212 1 105 -183 105 -184 107 183 74 126c-15,11 -28,24 -37,39 -4,5 -7,11 -10,16l-1 2z"/>
    <path class="fil1" d="M6538 3511l211 -1 212 -1 -105 184 -58 101c-15,-4 -32,-6 -48,-6 -17,0 -32,2 -47,6l-59 -100 -106 -183z"/>
    <path class="fil1" d="M6254 3951l212 -1 116 -1c3,35 19,66 44,90l-54 94 -105 184 -106 -183 -107 -183z"/>
    <path class="fil1" d="M6917 3949l129 0 211 -1 -105 184 -105 183 -106 -183 -60 -102c7,-7 12,-16 17,-24 8,-12 13,-26 16,-40 1,-5 2,-11 3,-17z"/>
   </g>
  </g>
 </g>
</svg>
